<?xml version="1.0" encoding="UTF-8"?>
<svg version="1.1" viewBox="0 0 248.81 210.85" xmlns="http://www.w3.org/2000/svg">
 <defs>
  <filter id="a" color-interpolation-filters="sRGB">
   <feGaussianBlur stdDeviation="12.357144"/>
  </filter>
 </defs>
 <g transform="translate(-32.928 -29.017)">
  <g transform="matrix(.41516 0 0 .41516 -3.3918 .61217)">
   <path d="m117.14 98.076h540v448.57h-540z" filter="url(#a)"/>
   <path d="m117.14 98.076h540v448.57h-540z"/>
   <path d="m194.29 120.26h385.71v399.83h-385.71z" fill="#fff"/>
   <g transform="translate(0 6.385)" fill="#fff">
    <path d="m589.71 118.08h54.286v37.143h-54.286z"/>
    <path d="m589.71 177.12h54.286v37.143h-54.286z"/>
    <path d="m589.71 236.17h54.286v37.143h-54.286z"/>
    <path d="m589.71 295.22h54.286v37.143h-54.286z"/>
    <path d="m589.71 354.27h54.286v37.143h-54.286z"/>
    <path d="m589.71 413.31h54.286v37.143h-54.286z"/>
    <path d="m589.71 472.36h54.286v37.143h-54.286z"/>
   </g>
   <g transform="translate(0 -5.7388)" fill="#fff">
    <path d="m128 130.2h54.286v37.143h-54.286z"/>
    <path d="m128 189.25h54.286v37.143h-54.286z"/>
    <path d="m128 248.3h54.286v37.143h-54.286z"/>
    <path d="m128 307.34h54.286v37.143h-54.286z"/>
    <path d="m128 366.39h54.286v37.143h-54.286z"/>
    <path d="m128 425.44h54.286v37.143h-54.286z"/>
    <path d="m128 484.49h54.286v37.143h-54.286z"/>
   </g>
   <path transform="matrix(1.7557 0 0 1.7557 -293.01 -227.84)" d="m487.98 307.5c0 54.822-44.442 99.264-99.264 99.264-54.822 0-99.264-44.442-99.264-99.264 0-54.822 44.442-99.264 99.264-99.264 54.822 0 99.264 44.442 99.264 99.264z" fill="#4d4d4d"/>
   <path transform="matrix(1.5802 0 0 1.5802 -224.76 -173.85)" d="m487.98 307.5c0 54.822-44.442 99.264-99.264 99.264-54.822 0-99.264-44.442-99.264-99.264 0-54.822 44.442-99.264 99.264-99.264 54.822 0 99.264 44.442 99.264 99.264z" fill="#999"/>
   <path transform="matrix(1.3435 0 0 1.3435 -132.77 -101.08)" d="m487.98 307.5c0 54.822-44.442 99.264-99.264 99.264-54.822 0-99.264-44.442-99.264-99.264 0-54.822 44.442-99.264 99.264-99.264 54.822 0 99.264 44.442 99.264 99.264z" fill="#fff"/>
   <path transform="matrix(1.0305 0 0 1.0305 -11.112 -4.843)" d="m487.98 307.5c0 54.822-44.442 99.264-99.264 99.264-54.822 0-99.264-44.442-99.264-99.264 0-54.822 44.442-99.264 99.264-99.264 54.822 0 99.264 44.442 99.264 99.264z" fill="none" stroke="#000"/>
   <g fill="#1a1a1a">
    <path d="m367.06 350.49c3.0844 2.1324 6.9997 3.1985 11.746 3.1985l17.437 0.3584c4.5072 2e-5 8.0658-1.4227 10.676-4.2683 3.5586-3.3234 5.338-8.5438 5.3381-15.661-7e-5 -3.7976-0.47433-6.5254-1.4228-8.1836-0.23538-0.71314-0.82729-1.3069-1.7757-1.7812-2.136-0.71313-9.3729-1.0697-21.711-1.0698-4.2719 5e-5 -7.1192-2.2536-8.542-6.7608-0.94854-4.5072-0.1177-8.0658 2.4925-10.676 1.4227-1.8969 3.4392-2.8454 6.0494-2.8455 14.235 7e-5 22.064-1.305 23.486-3.9153 0.94843-1.6616 1.4227-4.3895 1.4228-8.1836-7e-5 -7.5952-1.7794-13.053-5.3381-16.373-2.6103-2.6101-6.169-3.9152-10.676-3.9153h-0.35297l-17.084-0.3584c-3.5587 1e-4 -6.7627 0.71329-9.6118 2.1396-1.4228 0.9486-2.1342 1.3034-2.1341 1.0644-2e-5 3.7977-1.6599 6.7645-4.9796 8.9004-3.3234 1.8971-6.645 1.8971-9.9647 0-3.5587-2.1358-5.3381-5.1026-5.3381-8.9004 0.47425-8.3011 4.9814-14.588 13.522-18.86 5.4557-2.849 11.625-4.2736 18.507-4.2737h17.437c9.7275 1.3e-4 17.913 3.3217 24.556 9.9647 7.5916 7.3564 11.387 17.56 11.387 30.611-9e-5 6.6432-1.1857 12.336-3.5569 17.079-0.71328 0.94857-1.8989 2.4908-3.5569 4.6267 1.8969 2.136 3.0826 3.5606 3.5569 4.2737 2.3712 4.5073 3.5568 10.32 3.5569 17.437-9e-5 12.338-3.7959 22.303-11.387 29.894-6.6432 6.6432-14.829 9.9647-24.556 9.9647h-0.35297-17.084c-6.6432 0-12.812-1.4228-18.507-4.2683-9.0144-4.2719-13.522-10.441-13.522-18.507 0-4.0329 1.7794-6.9997 5.3381-8.9004 3.3198-2.1359 6.6413-2.1359 9.9647 0 3.3197 1.9007 4.9796 4.8674 4.9796 8.9004z" fill="#1a1a1a"/>
   </g>
   <path d="m388.77 121.91c1.412 380.28 1.412 380.28 1.412 380.28" fill="none" stroke="#000" stroke-width="1.1035px"/>
   <path d="m577.35 312.76l-380.28-1.412" fill="none" stroke="#000" stroke-width="1.1035px"/>
  </g>
 </g>
</svg>
